<svg width="51" height="50" viewBox="0 0 51 50" fill="none" xmlns="http://www.w3.org/2000/svg">
<g clip-path="url(#clip0_17_79)">
<path d="M49.2388 15.596L26.3872 0.361635C25.6072 -0.118345 24.7748 -0.12274 23.9877 0.361635L1.13613 15.596C0.550195 15.9865 0.1875 16.6842 0.1875 17.3817V32.6159C0.1875 33.3135 0.550195 34.011 1.13623 34.4017L23.9878 49.6382C24.7678 50.1182 25.6002 50.1226 26.3873 49.6382L49.2389 34.4017C49.8248 34.0111 50.1876 33.3135 50.1876 32.6159V17.3817C50.1875 16.6842 49.8248 15.9865 49.2388 15.596ZM27.3359 6.16505L44.1607 17.3817L36.6552 22.404L27.3359 16.1819V6.16505ZM23.0391 6.16505V16.1819L13.7198 22.404L6.21426 17.3817L23.0391 6.16505ZM4.48438 21.3995L9.86943 24.9988L4.48438 28.5982V21.3995ZM23.0391 43.8326L6.21426 32.616L13.7198 27.5937L23.0391 33.8158V43.8326ZM25.1875 30.077L17.5981 24.9988L25.1875 19.9207L32.7769 24.9988L25.1875 30.077ZM27.3359 43.8326V33.8158L36.6552 27.5937L44.1607 32.616L27.3359 43.8326ZM45.8906 28.5982L40.5056 24.9988L45.8906 21.3995V28.5982Z" fill="white" fill-opacity="0.7"/>
</g>
<defs>
<clipPath id="clip0_17_79">
<rect width="50" height="50" fill="white" transform="translate(0.1875)"/>
</clipPath>
</defs>
</svg>
