<svg width="50" height="64" viewBox="0 0 50 64" fill="none" xmlns="http://www.w3.org/2000/svg">
<path d="M23.8208 9.98466V44.4696C23.8208 47.3206 28.2587 47.325 28.2587 44.4696V9.98466C28.2587 7.13363 23.8208 7.1292 23.8208 9.98466ZM48.7931 19.9068C44.3551 21.9736 39.9172 24.0427 35.4793 26.1095C35.1087 26.2823 35.1242 26.8893 35.4793 27.0665C39.7685 29.2087 44.06 31.3486 48.3493 33.4907C48.9861 33.8075 49.5497 32.8527 48.9085 32.5338C44.6192 30.3916 40.3277 28.2517 36.0384 26.1095V27.0665C40.4764 24.9997 44.9143 22.9306 49.3522 20.8638C50.0002 20.5625 49.4366 19.6077 48.7931 19.9068Z" fill="white" fill-opacity="0.7"/>
<path d="M0.294964 32.1683C2.81127 44.0731 12.3684 53.5123 24.3308 55.8804C26.3368 56.2769 28.3871 56.5007 30.433 56.5051C31.8598 56.5073 31.862 54.2921 30.433 54.2898C19.3204 54.2765 9.05323 47.7571 4.41781 37.6511C3.528 35.7127 2.87341 33.6636 2.43405 31.579C2.13893 30.1856 -0.000158979 30.7749 0.294964 32.1683Z" fill="white" fill-opacity="0.7"/>
</svg>
