<svg width="45" height="50" viewBox="0 0 45 50" fill="none" xmlns="http://www.w3.org/2000/svg">
<g clip-path="url(#clip0_17_75)">
<path d="M41.0625 3.125H3.55273C1.83398 3.125 0.4375 4.54102 0.4375 6.2793V43.7207C0.4375 45.459 1.83398 46.875 3.55273 46.875H41.0625C42.7812 46.875 44.1875 45.459 44.1875 43.7207V6.2793C44.1875 4.54102 42.7812 3.125 41.0625 3.125ZM13.6602 40.625H7.17578V19.7461H13.6699V40.625H13.6602ZM10.418 16.8945C8.33789 16.8945 6.6582 15.2051 6.6582 13.1348C6.6582 11.0645 8.33789 9.375 10.418 9.375C12.4883 9.375 14.1777 11.0645 14.1777 13.1348C14.1777 15.2148 12.498 16.8945 10.418 16.8945ZM37.9668 40.625H31.4824V30.4688C31.4824 28.0469 31.4336 24.9316 28.1133 24.9316C24.7344 24.9316 24.2168 27.5684 24.2168 30.293V40.625H17.7324V19.7461H23.9531V22.5977H24.041C24.9102 20.957 27.0293 19.2285 30.1836 19.2285C36.7461 19.2285 37.9668 23.5547 37.9668 29.1797V40.625Z" fill="white" fill-opacity="0.7"/>
</g>
<defs>
<clipPath id="clip0_17_75">
<rect width="43.75" height="50" fill="white" transform="translate(0.4375)"/>
</clipPath>
</defs>
</svg>
