<svg width="82" height="81" viewBox="0 0 82 81" fill="none" xmlns="http://www.w3.org/2000/svg">
<rect width="12.5921" height="56.9805" rx="6.29603" transform="matrix(0.707107 0.707107 0.707107 -0.707107 32.0221 72.0962)" fill="white"/>
<rect width="12.5921" height="56.9805" rx="6.29603" transform="matrix(0.707107 0.707107 0.707107 -0.707107 0.217354 40.2915)" fill="white"/>
<rect width="12.5921" height="40.8542" rx="6.29603" transform="matrix(0 -1 -1 0 78.8477 46.7305)" fill="white"/>
<rect width="7.27541" height="34.1385" rx="3.6377" transform="matrix(0 -1 -1 0 75.4898 43.9326)" fill="#1E1E1E"/>
<rect x="0.217354" y="40.5781" width="12.5921" height="56.9805" rx="6.29603" transform="rotate(-45 0.217354 40.5781)" fill="white"/>
<path d="M45.9669 42.0878C45.7965 42.0878 45.6668 42.0662 45.5778 42.0229C45.4889 41.9797 45.4291 41.9263 45.3986 41.8627C45.3681 41.7992 45.3528 41.7356 45.3528 41.672C45.3528 41.5831 45.3783 41.5004 45.4291 41.4241C45.48 41.3504 45.5435 41.2856 45.6198 41.2296C45.6986 41.1712 45.7813 41.1292 45.8677 41.1038L45.9821 41.1953C45.9338 41.2157 45.8855 41.2474 45.8372 41.2907C45.7889 41.3339 45.7495 41.3822 45.719 41.4356C45.6885 41.489 45.6732 41.5436 45.6732 41.5996C45.6732 41.6377 45.6808 41.672 45.6961 41.7026C45.7139 41.7356 45.7457 41.7598 45.7914 41.775C45.8397 41.7928 45.9071 41.8017 45.9936 41.8017C46.1309 41.8017 46.23 41.7687 46.291 41.7026C46.3521 41.639 46.3826 41.5742 46.3826 41.5081C46.3826 41.4496 46.3699 41.4038 46.3444 41.3708C46.319 41.3402 46.2745 41.3174 46.211 41.3021C46.1499 41.2843 46.0635 41.2716 45.9516 41.264C45.8448 41.2538 45.7507 41.2385 45.6694 41.2182C45.588 41.1979 45.5245 41.1699 45.4787 41.1343C45.4329 41.0987 45.41 41.0555 45.41 41.0046C45.4126 40.9639 45.4266 40.922 45.452 40.8788C45.4774 40.833 45.513 40.7872 45.5588 40.7415C45.6071 40.6931 45.663 40.6474 45.7266 40.6042L45.9173 40.669C45.902 40.6792 45.8804 40.6982 45.8525 40.7262C45.8245 40.7516 45.7991 40.7809 45.7762 40.8139C45.7533 40.8444 45.7418 40.8737 45.7418 40.9016C45.7418 40.9347 45.7851 40.9589 45.8715 40.9741C45.958 40.9894 46.0648 41.0046 46.1919 41.0199C46.291 41.0351 46.3788 41.0593 46.455 41.0923C46.5313 41.1228 46.5898 41.1673 46.6305 41.2258C46.6737 41.2843 46.6953 41.3644 46.6953 41.4661C46.6953 41.5754 46.6699 41.6771 46.619 41.7712C46.5682 41.8678 46.4894 41.9441 46.3826 42C46.2758 42.0585 46.1372 42.0878 45.9669 42.0878ZM46.0126 40.7491C45.8601 40.7491 45.7406 40.7198 45.6541 40.6614C45.5677 40.6029 45.5067 40.5241 45.4711 40.4249C45.4355 40.3232 45.4177 40.2113 45.4177 40.0893C45.4177 39.9215 45.4444 39.7867 45.4978 39.685C45.5512 39.5808 45.6262 39.5058 45.7228 39.46C45.8194 39.4142 45.93 39.3913 46.0546 39.3913C46.0826 39.3913 46.1169 39.3952 46.1576 39.4028C46.2008 39.4104 46.2402 39.4206 46.2758 39.4333L46.3406 39.5706C46.4296 39.6062 46.4995 39.6659 46.5504 39.7498C46.6038 39.8338 46.6305 39.9444 46.6305 40.0817C46.6305 40.2164 46.6089 40.3334 46.5656 40.4325C46.525 40.5317 46.4589 40.6092 46.3673 40.6652C46.2783 40.7211 46.1601 40.7491 46.0126 40.7491ZM46.0279 40.5126C46.0965 40.5126 46.1512 40.4936 46.1919 40.4554C46.2351 40.4173 46.2669 40.3613 46.2872 40.2876C46.3076 40.2113 46.3177 40.1185 46.3177 40.0092C46.3177 39.8693 46.2949 39.7702 46.2491 39.7117C46.2033 39.6507 46.1334 39.6202 46.0393 39.6202C45.9859 39.6202 45.9364 39.6354 45.8906 39.6659C45.8448 39.6939 45.8092 39.7422 45.7838 39.8109C45.7584 39.877 45.7457 39.9672 45.7457 40.0817C45.7457 40.1706 45.752 40.2482 45.7647 40.3143C45.78 40.3779 45.808 40.4274 45.8486 40.463C45.8893 40.4961 45.9491 40.5126 46.0279 40.5126ZM46.6229 39.6888C46.5847 39.6888 46.539 39.6825 46.4856 39.6698C46.4322 39.6545 46.3788 39.6392 46.3254 39.624C46.272 39.6062 46.2275 39.5909 46.1919 39.5782C46.1588 39.5655 46.1423 39.5592 46.1423 39.5592L46.108 39.4219H46.6991C46.7068 39.4346 46.7131 39.4536 46.7182 39.4791C46.7258 39.5019 46.7296 39.5312 46.7296 39.5668C46.7296 39.61 46.7195 39.6418 46.6991 39.6621C46.6813 39.6799 46.6559 39.6888 46.6229 39.6888ZM46.9378 41.3364V39.563C47.0115 39.5096 47.0929 39.4676 47.1819 39.4371C47.2709 39.4066 47.3624 39.3913 47.4565 39.3913C47.5557 39.3913 47.6243 39.4053 47.6624 39.4333C47.7031 39.4587 47.7235 39.4981 47.7235 39.5515C47.7235 39.5719 47.7209 39.5998 47.7158 39.6354C47.7107 39.6685 47.7018 39.7015 47.6891 39.7346C47.6612 39.7193 47.6319 39.7079 47.6014 39.7003C47.5709 39.6926 47.5391 39.6888 47.5061 39.6888C47.4628 39.6888 47.4184 39.6965 47.3726 39.7117C47.3294 39.7244 47.2899 39.7448 47.2544 39.7727L47.2505 41.2754C47.2505 41.2957 47.2455 41.3097 47.2353 41.3174C47.2277 41.325 47.2022 41.3301 47.159 41.3326C47.1158 41.3352 47.042 41.3364 46.9378 41.3364ZM48.4144 41.3746C48.328 41.3746 48.2466 41.3619 48.1703 41.3364C48.0966 41.3135 48.0317 41.2703 47.9758 41.2068C47.9224 41.1432 47.8805 41.0529 47.8499 40.936C47.822 40.819 47.808 40.6677 47.808 40.4821C47.808 40.2431 47.8271 40.0511 47.8652 39.9062C47.9033 39.7613 47.9542 39.652 48.0178 39.5782C48.0813 39.5045 48.1538 39.4549 48.2351 39.4295C48.3165 39.4041 48.3991 39.3913 48.4831 39.3913C48.6432 39.3913 48.764 39.4422 48.8454 39.5439C48.9267 39.6456 48.9674 39.7994 48.9674 40.0054C48.9674 40.0893 48.9636 40.1757 48.956 40.2647C48.9509 40.3537 48.9394 40.4325 48.9216 40.5012C48.8352 40.519 48.7386 40.5317 48.6318 40.5393C48.525 40.547 48.4233 40.5533 48.3267 40.5584C48.2301 40.5609 48.15 40.5622 48.0864 40.5622C48.0254 40.5622 47.9949 40.5622 47.9949 40.5622L47.9987 40.3105C47.9987 40.3105 48.0228 40.3118 48.0712 40.3143C48.1195 40.3143 48.1779 40.3143 48.2466 40.3143C48.3178 40.3118 48.389 40.3079 48.4602 40.3029C48.5339 40.2952 48.5962 40.2838 48.647 40.2685C48.6547 40.2329 48.6598 40.1948 48.6623 40.1541C48.6648 40.1134 48.6661 40.0753 48.6661 40.0397C48.6636 39.9024 48.647 39.8058 48.6165 39.7498C48.5886 39.6914 48.5326 39.6621 48.4487 39.6621C48.4055 39.6621 48.3635 39.6748 48.3229 39.7003C48.2847 39.7231 48.2504 39.7651 48.2199 39.8261C48.1894 39.8846 48.1652 39.966 48.1474 40.0702C48.1322 40.1745 48.1245 40.3079 48.1245 40.4707C48.1245 40.5902 48.1309 40.6893 48.1436 40.7682C48.1589 40.847 48.1805 40.908 48.2085 40.9512C48.239 40.9944 48.2758 41.0262 48.3191 41.0466C48.3648 41.0644 48.4195 41.0733 48.4831 41.0733C48.5593 41.0733 48.6343 41.0631 48.7081 41.0428C48.7843 41.0224 48.853 40.9932 48.914 40.955C48.9267 40.9855 48.9344 41.0211 48.9369 41.0618C48.942 41.1 48.9445 41.1343 48.9445 41.1648C48.9445 41.2029 48.9204 41.2385 48.8721 41.2716C48.8238 41.3046 48.7589 41.3301 48.6776 41.3479C48.5987 41.3657 48.511 41.3746 48.4144 41.3746ZM49.2395 41.3364L49.2395 39.521C49.2904 39.4981 49.3501 39.4778 49.4188 39.46C49.4874 39.4397 49.5586 39.4231 49.6324 39.4104C49.7061 39.3977 49.7773 39.3913 49.846 39.3913C49.9782 39.3913 50.0837 39.4091 50.1625 39.4447C50.2413 39.4778 50.2973 39.5312 50.3303 39.6049C50.3634 39.6787 50.3799 39.7778 50.3799 39.9024V41.2754C50.3799 41.2957 50.3748 41.3097 50.3646 41.3174C50.3545 41.325 50.3278 41.3301 50.2845 41.3326C50.2413 41.3352 50.1663 41.3364 50.0595 41.3364V39.9939C50.0595 39.8744 50.0455 39.7893 50.0176 39.7384C49.9896 39.6876 49.9286 39.6621 49.8345 39.6621C49.7913 39.6621 49.743 39.6672 49.6896 39.6774C49.6362 39.6876 49.5891 39.7054 49.5485 39.7308V41.2754C49.5485 41.2957 49.5434 41.3097 49.5332 41.3174C49.5256 41.325 49.5002 41.3301 49.4569 41.3326C49.4137 41.3352 49.3412 41.3364 49.2395 41.3364ZM50.8039 41.3364V39.5706C50.8039 39.5223 50.8128 39.4892 50.8306 39.4714C50.8484 39.4511 50.8802 39.4397 50.926 39.4371C50.9717 39.432 51.0366 39.4295 51.1205 39.4295V41.2754C51.1205 41.2957 51.1154 41.3097 51.1052 41.3174C51.0976 41.325 51.0722 41.3301 51.0289 41.3326C50.9857 41.3352 50.9107 41.3364 50.8039 41.3364ZM50.9527 39.1663C50.9044 39.1638 50.8662 39.146 50.8382 39.1129C50.8103 39.0773 50.7963 39.015 50.7963 38.926C50.7988 38.8574 50.8141 38.8027 50.8421 38.762C50.87 38.7188 50.9145 38.6972 50.9755 38.6972C51.034 38.6972 51.0747 38.7137 51.0976 38.7468C51.1205 38.7798 51.1306 38.8371 51.1281 38.9184C51.1281 38.9947 51.1128 39.0557 51.0823 39.1015C51.0544 39.1447 51.0111 39.1663 50.9527 39.1663ZM52.016 41.3746C51.9295 41.3746 51.8482 41.3619 51.7719 41.3364C51.6982 41.3135 51.6333 41.2703 51.5774 41.2068C51.524 41.1432 51.4821 41.0529 51.4515 40.936C51.4236 40.819 51.4096 40.6677 51.4096 40.4821C51.4096 40.2431 51.4287 40.0511 51.4668 39.9062C51.5049 39.7613 51.5558 39.652 51.6194 39.5782C51.6829 39.5045 51.7554 39.4549 51.8367 39.4295C51.9181 39.4041 52.0007 39.3913 52.0846 39.3913C52.2448 39.3913 52.3656 39.4422 52.447 39.5439C52.5283 39.6456 52.569 39.7994 52.569 40.0054C52.569 40.0893 52.5652 40.1757 52.5576 40.2647C52.5525 40.3537 52.541 40.4325 52.5232 40.5012C52.4368 40.519 52.3402 40.5317 52.2334 40.5393C52.1266 40.547 52.0249 40.5533 51.9283 40.5584C51.8317 40.5609 51.7516 40.5622 51.688 40.5622C51.627 40.5622 51.5965 40.5622 51.5965 40.5622L51.6003 40.3105C51.6003 40.3105 51.6244 40.3118 51.6727 40.3143C51.7211 40.3143 51.7795 40.3143 51.8482 40.3143C51.9194 40.3118 51.9906 40.3079 52.0618 40.3029C52.1355 40.2952 52.1978 40.2838 52.2486 40.2685C52.2563 40.2329 52.2614 40.1948 52.2639 40.1541C52.2664 40.1134 52.2677 40.0753 52.2677 40.0397C52.2652 39.9024 52.2486 39.8058 52.2181 39.7498C52.1902 39.6914 52.1342 39.6621 52.0503 39.6621C52.0071 39.6621 51.9651 39.6748 51.9245 39.7003C51.8863 39.7231 51.852 39.7651 51.8215 39.8261C51.791 39.8846 51.7668 39.966 51.749 40.0702C51.7338 40.1745 51.7261 40.3079 51.7261 40.4707C51.7261 40.5902 51.7325 40.6893 51.7452 40.7682C51.7605 40.847 51.7821 40.908 51.81 40.9512C51.8406 40.9944 51.8774 41.0262 51.9206 41.0466C51.9664 41.0644 52.0211 41.0733 52.0846 41.0733C52.1609 41.0733 52.2359 41.0631 52.3097 41.0428C52.3859 41.0224 52.4546 40.9932 52.5156 40.955C52.5283 40.9855 52.536 41.0211 52.5385 41.0618C52.5436 41.1 52.5461 41.1343 52.5461 41.1648C52.5461 41.2029 52.522 41.2385 52.4737 41.2716C52.4254 41.3046 52.3605 41.3301 52.2792 41.3479C52.2003 41.3657 52.1126 41.3746 52.016 41.3746ZM52.845 41.3364V38.6743C52.845 38.626 52.8526 38.593 52.8678 38.5752C52.8856 38.5548 52.9174 38.5434 52.9632 38.5408C53.0089 38.5358 53.0725 38.5332 53.1539 38.5332V41.2754C53.1539 41.2957 53.1488 41.3097 53.1386 41.3174C53.131 41.325 53.1056 41.3301 53.0623 41.3326C53.0217 41.3352 52.9492 41.3364 52.845 41.3364ZM54.0267 42.0878C53.8563 42.0878 53.7267 42.0662 53.6377 42.0229C53.5487 41.9797 53.4889 41.9263 53.4584 41.8627C53.4279 41.7992 53.4127 41.7356 53.4127 41.672C53.4127 41.5831 53.4381 41.5004 53.4889 41.4241C53.5398 41.3504 53.6033 41.2856 53.6796 41.2296C53.7584 41.1712 53.8411 41.1292 53.9275 41.1038L54.0419 41.1953C53.9936 41.2157 53.9453 41.2474 53.897 41.2907C53.8487 41.3339 53.8093 41.3822 53.7788 41.4356C53.7483 41.489 53.733 41.5436 53.733 41.5996C53.733 41.6377 53.7406 41.672 53.7559 41.7026C53.7737 41.7356 53.8055 41.7598 53.8513 41.775C53.8996 41.7928 53.9669 41.8017 54.0534 41.8017C54.1907 41.8017 54.2898 41.7687 54.3509 41.7026C54.4119 41.639 54.4424 41.5742 54.4424 41.5081C54.4424 41.4496 54.4297 41.4038 54.4043 41.3708C54.3788 41.3402 54.3343 41.3174 54.2708 41.3021C54.2098 41.2843 54.1233 41.2716 54.0114 41.264C53.9046 41.2538 53.8106 41.2385 53.7292 41.2182C53.6478 41.1979 53.5843 41.1699 53.5385 41.1343C53.4927 41.0987 53.4699 41.0555 53.4699 41.0046C53.4724 40.9639 53.4864 40.922 53.5118 40.8788C53.5372 40.833 53.5728 40.7872 53.6186 40.7415C53.6669 40.6931 53.7229 40.6474 53.7864 40.6042L53.9771 40.669C53.9619 40.6792 53.9402 40.6982 53.9123 40.7262C53.8843 40.7516 53.8589 40.7809 53.836 40.8139C53.8131 40.8444 53.8017 40.8737 53.8017 40.9016C53.8017 40.9347 53.8449 40.9589 53.9313 40.9741C54.0178 40.9894 54.1246 41.0046 54.2517 41.0199C54.3509 41.0351 54.4386 41.0593 54.5149 41.0923C54.5911 41.1228 54.6496 41.1673 54.6903 41.2258C54.7335 41.2843 54.7551 41.3644 54.7551 41.4661C54.7551 41.5754 54.7297 41.6771 54.6789 41.7712C54.628 41.8678 54.5492 41.9441 54.4424 42C54.3356 42.0585 54.197 42.0878 54.0267 42.0878ZM54.0725 40.7491C53.9199 40.7491 53.8004 40.7198 53.714 40.6614C53.6275 40.6029 53.5665 40.5241 53.5309 40.4249C53.4953 40.3232 53.4775 40.2113 53.4775 40.0893C53.4775 39.9215 53.5042 39.7867 53.5576 39.685C53.611 39.5808 53.686 39.5058 53.7826 39.46C53.8792 39.4142 53.9898 39.3913 54.1144 39.3913C54.1424 39.3913 54.1767 39.3952 54.2174 39.4028C54.2606 39.4104 54.3 39.4206 54.3356 39.4333L54.4005 39.5706C54.4894 39.6062 54.5594 39.6659 54.6102 39.7498C54.6636 39.8338 54.6903 39.9444 54.6903 40.0817C54.6903 40.2164 54.6687 40.3334 54.6255 40.4325C54.5848 40.5317 54.5187 40.6092 54.4271 40.6652C54.3382 40.7211 54.2199 40.7491 54.0725 40.7491ZM54.0877 40.5126C54.1564 40.5126 54.211 40.4936 54.2517 40.4554C54.2949 40.4173 54.3267 40.3613 54.3471 40.2876C54.3674 40.2113 54.3776 40.1185 54.3776 40.0092C54.3776 39.8693 54.3547 39.7702 54.3089 39.7117C54.2632 39.6507 54.1932 39.6202 54.0992 39.6202C54.0458 39.6202 53.9962 39.6354 53.9504 39.6659C53.9046 39.6939 53.869 39.7422 53.8436 39.8109C53.8182 39.877 53.8055 39.9672 53.8055 40.0817C53.8055 40.1706 53.8118 40.2482 53.8246 40.3143C53.8398 40.3779 53.8678 40.4274 53.9085 40.463C53.9491 40.4961 54.0089 40.5126 54.0877 40.5126ZM54.6827 39.6888C54.6445 39.6888 54.5988 39.6825 54.5454 39.6698C54.492 39.6545 54.4386 39.6392 54.3852 39.624C54.3318 39.6062 54.2873 39.5909 54.2517 39.5782C54.2187 39.5655 54.2021 39.5592 54.2021 39.5592L54.1678 39.4219H54.759C54.7666 39.4346 54.7729 39.4536 54.778 39.4791C54.7857 39.5019 54.7895 39.5312 54.7895 39.5668C54.7895 39.61 54.7793 39.6418 54.759 39.6621C54.7412 39.6799 54.7157 39.6888 54.6827 39.6888ZM55.482 41.3746C55.4108 41.3746 55.3421 41.3682 55.276 41.3555C55.2125 41.3453 55.1553 41.3212 55.1044 41.283C55.0536 41.2423 55.0129 41.1839 54.9824 41.1076C54.9519 41.0313 54.9366 40.9271 54.9366 40.7949C54.9366 40.6626 54.9506 40.5558 54.9786 40.4745C55.0065 40.3906 55.0447 40.327 55.093 40.2838C55.1413 40.238 55.1959 40.2075 55.257 40.1923C55.318 40.177 55.3803 40.1694 55.4438 40.1694C55.4845 40.1694 55.5316 40.1732 55.585 40.1808C55.6409 40.1884 55.6879 40.2012 55.7261 40.219C55.7261 40.219 55.7261 40.2012 55.7261 40.1656C55.7261 40.13 55.7261 40.0893 55.7261 40.0435C55.7261 39.9952 55.7261 39.9533 55.7261 39.9177C55.7261 39.8566 55.7159 39.8109 55.6956 39.7804C55.6778 39.7473 55.6511 39.7244 55.6155 39.7117C55.5824 39.6965 55.5405 39.6888 55.4896 39.6888C55.3905 39.6888 55.2951 39.6977 55.2036 39.7155C55.112 39.7333 55.0383 39.7537 54.9824 39.7765C54.9646 39.746 54.9531 39.7155 54.948 39.685C54.943 39.652 54.9404 39.6227 54.9404 39.5973C54.9404 39.5795 54.943 39.5604 54.948 39.5401C54.9557 39.5197 54.9671 39.5045 54.9824 39.4943C55.0154 39.474 55.0841 39.4524 55.1883 39.4295C55.2926 39.4041 55.4172 39.3913 55.5621 39.3913C55.7273 39.3913 55.8468 39.4257 55.9206 39.4943C55.9969 39.563 56.035 39.6837 56.035 39.8566V40.0588C56.035 40.2037 56.0337 40.3499 56.0312 40.4974C56.0312 40.6423 56.0299 40.7796 56.0274 40.9093C56.0248 41.0364 56.0197 41.1483 56.0121 41.2449C55.9613 41.2754 55.8913 41.3046 55.8024 41.3326C55.7134 41.3606 55.6066 41.3746 55.482 41.3746ZM55.5125 41.1152C55.5532 41.1152 55.5926 41.1089 55.6307 41.0962C55.6689 41.0834 55.6956 41.0682 55.7108 41.0504C55.7159 41.0097 55.7184 40.9538 55.7184 40.8826C55.721 40.8114 55.7223 40.7364 55.7223 40.6576C55.7248 40.5787 55.7261 40.505 55.7261 40.4363C55.7007 40.4236 55.6701 40.4147 55.6345 40.4097C55.6015 40.4046 55.5722 40.402 55.5468 40.402C55.5061 40.402 55.468 40.4071 55.4324 40.4173C55.3994 40.4249 55.3701 40.4427 55.3447 40.4707C55.3193 40.4961 55.2989 40.5342 55.2837 40.5851C55.2684 40.6359 55.2608 40.7033 55.2608 40.7872C55.2608 40.8559 55.2659 40.9118 55.276 40.955C55.2888 40.9983 55.3065 41.0326 55.3294 41.058C55.3523 41.0809 55.379 41.0962 55.4095 41.1038C55.44 41.1114 55.4744 41.1152 55.5125 41.1152ZM56.3497 41.3364V38.6743C56.3497 38.626 56.3573 38.593 56.3726 38.5752C56.3904 38.5548 56.4222 38.5434 56.4679 38.5408C56.5137 38.5358 56.5773 38.5332 56.6586 38.5332V41.2754C56.6586 41.2957 56.6535 41.3097 56.6434 41.3174C56.6357 41.325 56.6103 41.3301 56.5671 41.3326C56.5264 41.3352 56.454 41.3364 56.3497 41.3364ZM57.0089 41.3364V39.5706C57.0089 39.5223 57.0178 39.4892 57.0356 39.4714C57.0534 39.4511 57.0852 39.4397 57.131 39.4371C57.1768 39.432 57.2416 39.4295 57.3255 39.4295V41.2754C57.3255 41.2957 57.3204 41.3097 57.3102 41.3174C57.3026 41.325 57.2772 41.3301 57.234 41.3326C57.1907 41.3352 57.1157 41.3364 57.0089 41.3364ZM57.1577 39.1663C57.1094 39.1638 57.0712 39.146 57.0433 39.1129C57.0153 39.0773 57.0013 39.015 57.0013 38.926C57.0039 38.8574 57.0191 38.8027 57.0471 38.762C57.0751 38.7188 57.1195 38.6972 57.1806 38.6972C57.239 38.6972 57.2797 38.7137 57.3026 38.7468C57.3255 38.7798 57.3357 38.8371 57.3331 38.9184C57.3331 38.9947 57.3179 39.0557 57.2874 39.1015C57.2594 39.1447 57.2162 39.1663 57.1577 39.1663ZM57.7202 41.3364V39.521C57.7711 39.4981 57.8308 39.4778 57.8995 39.46C57.9681 39.4397 58.0393 39.4231 58.1131 39.4104C58.1868 39.3977 58.258 39.3913 58.3266 39.3913C58.4589 39.3913 58.5644 39.4091 58.6432 39.4447C58.722 39.4778 58.778 39.5312 58.811 39.6049C58.8441 39.6787 58.8606 39.7778 58.8606 39.9024V41.2754C58.8606 41.2957 58.8555 41.3097 58.8453 41.3174C58.8352 41.325 58.8085 41.3301 58.7652 41.3326C58.722 41.3352 58.647 41.3364 58.5402 41.3364V39.9939C58.5402 39.8744 58.5262 39.7893 58.4983 39.7384C58.4703 39.6876 58.4093 39.6621 58.3152 39.6621C58.272 39.6621 58.2237 39.6672 58.1703 39.6774C58.1169 39.6876 58.0698 39.7054 58.0292 39.7308V41.2754C58.0292 41.2957 58.0241 41.3097 58.0139 41.3174C58.0063 41.325 57.9809 41.3301 57.9376 41.3326C57.8944 41.3352 57.8219 41.3364 57.7202 41.3364ZM59.6609 41.3746C59.5897 41.3746 59.521 41.3682 59.4549 41.3555C59.3914 41.3453 59.3342 41.3212 59.2833 41.283C59.2325 41.2423 59.1918 41.1839 59.1613 41.1076C59.1307 41.0313 59.1155 40.9271 59.1155 40.7949C59.1155 40.6626 59.1295 40.5558 59.1574 40.4745C59.1854 40.3906 59.2236 40.327 59.2719 40.2838C59.3202 40.238 59.3748 40.2075 59.4359 40.1923C59.4969 40.177 59.5592 40.1694 59.6227 40.1694C59.6634 40.1694 59.7105 40.1732 59.7639 40.1808C59.8198 40.1884 59.8668 40.2012 59.905 40.219C59.905 40.219 59.905 40.2012 59.905 40.1656C59.905 40.13 59.905 40.0893 59.905 40.0435C59.905 39.9952 59.905 39.9533 59.905 39.9177C59.905 39.8566 59.8948 39.8109 59.8745 39.7804C59.8567 39.7473 59.83 39.7244 59.7944 39.7117C59.7613 39.6965 59.7194 39.6888 59.6685 39.6888C59.5693 39.6888 59.474 39.6977 59.3825 39.7155C59.2909 39.7333 59.2172 39.7537 59.1613 39.7765C59.1435 39.746 59.132 39.7155 59.1269 39.685C59.1218 39.652 59.1193 39.6227 59.1193 39.5973C59.1193 39.5795 59.1218 39.5604 59.1269 39.5401C59.1346 39.5197 59.146 39.5045 59.1613 39.4943C59.1943 39.474 59.263 39.4524 59.3672 39.4295C59.4715 39.4041 59.596 39.3913 59.741 39.3913C59.9062 39.3913 60.0257 39.4257 60.0995 39.4943C60.1758 39.563 60.2139 39.6837 60.2139 39.8566V40.0588C60.2139 40.2037 60.2126 40.3499 60.2101 40.4974C60.2101 40.6423 60.2088 40.7796 60.2063 40.9093C60.2037 41.0364 60.1986 41.1483 60.191 41.2449C60.1402 41.2754 60.0702 41.3046 59.9812 41.3326C59.8923 41.3606 59.7855 41.3746 59.6609 41.3746ZM59.6914 41.1152C59.7321 41.1152 59.7715 41.1089 59.8096 41.0962C59.8478 41.0834 59.8745 41.0682 59.8897 41.0504C59.8948 41.0097 59.8973 40.9538 59.8973 40.8826C59.8999 40.8114 59.9012 40.7364 59.9012 40.6576C59.9037 40.5787 59.905 40.505 59.905 40.4363C59.8795 40.4236 59.849 40.4147 59.8134 40.4097C59.7804 40.4046 59.7511 40.402 59.7257 40.402C59.685 40.402 59.6469 40.4071 59.6113 40.4173C59.5782 40.4249 59.549 40.4427 59.5236 40.4707C59.4982 40.4961 59.4778 40.5342 59.4626 40.5851C59.4473 40.6359 59.4397 40.7033 59.4397 40.7872C59.4397 40.8559 59.4448 40.9118 59.4549 40.955C59.4676 40.9983 59.4854 41.0326 59.5083 41.058C59.5312 41.0809 59.5579 41.0962 59.5884 41.1038C59.6189 41.1114 59.6533 41.1152 59.6914 41.1152ZM61.0212 41.3746C60.9144 41.3746 60.8343 41.3517 60.7809 41.3059C60.7301 41.2576 60.697 41.1915 60.6818 41.1076C60.6665 41.0211 60.6589 40.9207 60.6589 40.8063V39.6965H60.3996C60.3996 39.6151 60.3996 39.5566 60.3996 39.521C60.4021 39.4829 60.4085 39.4587 60.4186 39.4485C60.4288 39.4358 60.444 39.4295 60.4644 39.4295H60.6589V38.8498C60.6589 38.8116 60.6665 38.7862 60.6818 38.7735C60.6996 38.7582 60.7301 38.7493 60.7733 38.7468C60.8191 38.7443 60.8839 38.743 60.9678 38.743V39.4295H61.3568C61.3568 39.5083 61.3556 39.5668 61.353 39.6049C61.353 39.6431 61.3479 39.6685 61.3378 39.6812C61.3301 39.6914 61.3162 39.6965 61.2958 39.6965H60.9678V40.8063C60.9678 40.8597 60.9691 40.9105 60.9716 40.9589C60.9767 41.0046 60.9882 41.0415 61.006 41.0695C61.0263 41.0949 61.0594 41.1076 61.1051 41.1076C61.1483 41.1076 61.1865 41.1038 61.2195 41.0962C61.2526 41.086 61.2882 41.0707 61.3263 41.0504C61.3314 41.0707 61.3365 41.0936 61.3416 41.119C61.3467 41.1445 61.3492 41.1737 61.3492 41.2068C61.3492 41.2525 61.3314 41.2881 61.2958 41.3135C61.2628 41.3364 61.2208 41.3517 61.17 41.3593C61.1216 41.3695 61.0721 41.3746 61.0212 41.3746ZM62.0754 41.3746C61.9788 41.3746 61.8924 41.3619 61.8161 41.3364C61.7424 41.3135 61.6801 41.2678 61.6292 41.1991C61.5784 41.1305 61.5402 41.0313 61.5148 40.9016C61.4894 40.7694 61.4766 40.5965 61.4766 40.383C61.4766 40.0346 61.5326 39.7829 61.6445 39.6278C61.7563 39.4702 61.9114 39.3913 62.1098 39.3913C62.2445 39.3913 62.3551 39.4193 62.4416 39.4752C62.5306 39.5312 62.5967 39.6303 62.6399 39.7727C62.6831 39.9151 62.7047 40.1147 62.7047 40.3715C62.7047 40.7275 62.6513 40.9843 62.5445 41.1419C62.4377 41.297 62.2814 41.3746 62.0754 41.3746ZM62.0831 41.1114C62.139 41.1114 62.1873 41.0923 62.228 41.0542C62.2712 41.0135 62.3055 40.9398 62.331 40.833C62.3564 40.7262 62.3691 40.5736 62.3691 40.3753C62.3691 40.1719 62.3589 40.0194 62.3386 39.9177C62.3182 39.8134 62.289 39.7435 62.2509 39.7079C62.2127 39.6723 62.1619 39.6545 62.0983 39.6545C62.0424 39.6545 61.9928 39.6748 61.9496 39.7155C61.9063 39.7537 61.872 39.8261 61.8466 39.9329C61.8237 40.0397 61.8123 40.1923 61.8123 40.3906C61.8123 40.5457 61.8186 40.6715 61.8313 40.7682C61.8441 40.8648 61.8606 40.9385 61.8809 40.9894C61.9038 41.0377 61.933 41.0707 61.9686 41.0885C62.0042 41.1038 62.0424 41.1114 62.0831 41.1114ZM63.1139 41.3593C63.0325 41.3593 62.9766 41.3402 62.9461 41.3021C62.9156 41.264 62.9003 41.2106 62.9003 41.1419C62.9003 41.0834 62.9181 41.0326 62.9537 40.9894C62.9918 40.9436 63.0452 40.9207 63.1139 40.9207C63.1927 40.9207 63.2474 40.9411 63.2779 40.9817C63.3109 41.0224 63.3275 41.0758 63.3275 41.1419C63.3275 41.2004 63.3084 41.2512 63.2703 41.2945C63.2321 41.3377 63.18 41.3593 63.1139 41.3593ZM64.0938 41.3746C63.9997 41.3746 63.917 41.3619 63.8459 41.3364C63.7772 41.3135 63.7187 41.269 63.6704 41.2029C63.6221 41.1343 63.5852 41.0377 63.5598 40.9131C63.5369 40.7885 63.5255 40.6258 63.5255 40.4249C63.5255 40.1961 63.5458 40.013 63.5865 39.8757C63.6272 39.7384 63.6806 39.6354 63.7467 39.5668C63.8153 39.4956 63.8891 39.4485 63.9679 39.4257C64.0493 39.4028 64.1293 39.3913 64.2082 39.3913C64.2972 39.3913 64.3722 39.4079 64.4332 39.4409C64.4942 39.4714 64.5247 39.5121 64.5247 39.563C64.5247 39.5833 64.5222 39.6087 64.5171 39.6392C64.5146 39.6698 64.5069 39.7015 64.4942 39.7346C64.4637 39.7168 64.4243 39.7015 64.376 39.6888C64.3277 39.6736 64.2768 39.6659 64.2234 39.6659C64.1802 39.6659 64.1357 39.6748 64.0899 39.6926C64.0467 39.7079 64.006 39.7409 63.9679 39.7918C63.9298 39.8427 63.8992 39.9189 63.8764 40.0206C63.856 40.1223 63.8459 40.2571 63.8459 40.4249C63.8459 40.5597 63.8522 40.6715 63.8649 40.7605C63.8802 40.847 63.9018 40.9156 63.9298 40.9665C63.9577 41.0148 63.9933 41.0491 64.0365 41.0695C64.0798 41.0898 64.1293 41.1 64.1853 41.1C64.2463 41.1 64.3035 41.0911 64.3569 41.0733C64.4128 41.0529 64.4573 41.0326 64.4904 41.0122C64.5006 41.0453 64.5069 41.0758 64.5095 41.1038C64.5146 41.1292 64.5171 41.1546 64.5171 41.1801C64.5171 41.2335 64.4777 41.2792 64.3989 41.3174C64.32 41.3555 64.2183 41.3746 64.0938 41.3746ZM65.2487 41.3746C65.1521 41.3746 65.0656 41.3619 64.9894 41.3364C64.9156 41.3135 64.8533 41.2678 64.8025 41.1991C64.7516 41.1305 64.7135 41.0313 64.6881 40.9016C64.6626 40.7694 64.6499 40.5965 64.6499 40.383C64.6499 40.0346 64.7059 39.7829 64.8177 39.6278C64.9296 39.4702 65.0847 39.3913 65.283 39.3913C65.4178 39.3913 65.5284 39.4193 65.6148 39.4752C65.7038 39.5312 65.7699 39.6303 65.8132 39.7727C65.8564 39.9151 65.878 40.1147 65.878 40.3715C65.878 40.7275 65.8246 40.9843 65.7178 41.1419C65.611 41.297 65.4547 41.3746 65.2487 41.3746ZM65.2563 41.1114C65.3123 41.1114 65.3606 41.0923 65.4013 41.0542C65.4445 41.0135 65.4788 40.9398 65.5042 40.833C65.5297 40.7262 65.5424 40.5736 65.5424 40.3753C65.5424 40.1719 65.5322 40.0194 65.5119 39.9177C65.4915 39.8134 65.4623 39.7435 65.4241 39.7079C65.386 39.6723 65.3352 39.6545 65.2716 39.6545C65.2157 39.6545 65.1661 39.6748 65.1228 39.7155C65.0796 39.7537 65.0453 39.8261 65.0199 39.9329C64.997 40.0397 64.9855 40.1923 64.9855 40.3906C64.9855 40.5457 64.9919 40.6715 65.0046 40.7682C65.0173 40.8648 65.0339 40.9385 65.0542 40.9894C65.0771 41.0377 65.1063 41.0707 65.1419 41.0885C65.1775 41.1038 65.2157 41.1114 65.2563 41.1114ZM66.1563 41.3364V39.5172C66.2402 39.4791 66.3305 39.4485 66.4271 39.4257C66.5263 39.4028 66.628 39.3913 66.7322 39.3913C66.8822 39.3913 66.9916 39.4244 67.0602 39.4905C67.1289 39.5566 67.1721 39.6507 67.1899 39.7727C67.2102 39.8948 67.2204 40.041 67.2204 40.2113V41.2754C67.2204 41.2957 67.2153 41.3097 67.2051 41.3174C67.195 41.325 67.1683 41.3301 67.1251 41.3326C67.0818 41.3352 67.0106 41.3364 66.9115 41.3364V39.9177C66.9115 39.8541 66.9077 39.8045 66.9 39.7689C66.8949 39.7308 66.8784 39.7041 66.8505 39.6888C66.825 39.671 66.7831 39.6621 66.7246 39.6621C66.6814 39.6621 66.6381 39.6672 66.5949 39.6774C66.5542 39.6876 66.511 39.7041 66.4652 39.727V41.2754C66.4652 41.2957 66.4602 41.3097 66.45 41.3174C66.4398 41.325 66.4131 41.3301 66.3699 41.3326C66.3292 41.3352 66.258 41.3364 66.1563 41.3364ZM66.9115 41.3364V39.6736C66.9344 39.6176 66.9789 39.5693 67.045 39.5286C67.1136 39.4854 67.1924 39.4524 67.2814 39.4295C67.373 39.4041 67.4607 39.3913 67.5446 39.3913C67.6717 39.3913 67.7658 39.413 67.8268 39.4562C67.8878 39.4969 67.9272 39.5579 67.945 39.6392C67.9628 39.7181 67.9717 39.8147 67.9717 39.9291V41.2754C67.9717 41.2957 67.9667 41.3097 67.9565 41.3174C67.9463 41.325 67.9196 41.3301 67.8764 41.3326C67.8332 41.3352 67.762 41.3364 67.6628 41.3364V39.9253C67.6628 39.8338 67.6501 39.7676 67.6247 39.727C67.6018 39.6863 67.5522 39.6659 67.4759 39.6659C67.4352 39.6659 67.3933 39.671 67.3501 39.6812C67.3068 39.6914 67.2636 39.7104 67.2204 39.7384V41.2754C67.2204 41.2957 67.2166 41.3097 67.209 41.3174C67.2013 41.325 67.1759 41.3301 67.1327 41.3326C67.0895 41.3352 67.0157 41.3364 66.9115 41.3364Z" fill="white"/>
</svg>
