<svg width="81" height="81" viewBox="0 0 81 81" fill="none" xmlns="http://www.w3.org/2000/svg">
<rect width="12.5921" height="56.9805" rx="6.29603" transform="matrix(0.707107 0.707107 0.707107 -0.707107 31.8047 72.0962)" fill="#003036"/>
<rect width="12.5921" height="56.9805" rx="6.29603" transform="matrix(0.707107 0.707107 0.707107 -0.707107 0 40.291)" fill="#003036"/>
<rect width="12.5921" height="40.8542" rx="6.29603" transform="matrix(0 -1 -1 0 78.6304 46.7305)" fill="#003036"/>
<rect width="7.27541" height="34.1385" rx="3.6377" transform="matrix(0 -1 -1 0 75.2725 43.9326)" fill="#1E1E1E"/>
<rect y="40.5781" width="12.5921" height="56.9805" rx="6.29603" transform="rotate(-45 0 40.5781)" fill="#003036"/>
<path d="M45.7495 42.0878C45.5792 42.0878 45.4495 42.0662 45.3605 42.0229C45.2715 41.9797 45.2118 41.9263 45.1812 41.8627C45.1507 41.7992 45.1355 41.7356 45.1355 41.672C45.1355 41.5831 45.1609 41.5004 45.2118 41.4241C45.2626 41.3504 45.3262 41.2856 45.4025 41.2296C45.4813 41.1712 45.5639 41.1292 45.6504 41.1038L45.7648 41.1953C45.7165 41.2157 45.6682 41.2474 45.6198 41.2907C45.5715 41.3339 45.5321 41.3822 45.5016 41.4356C45.4711 41.489 45.4558 41.5436 45.4558 41.5996C45.4558 41.6377 45.4635 41.672 45.4787 41.7026C45.4965 41.7356 45.5283 41.7598 45.5741 41.775C45.6224 41.7928 45.6898 41.8017 45.7762 41.8017C45.9135 41.8017 46.0127 41.7687 46.0737 41.7026C46.1347 41.639 46.1652 41.5742 46.1652 41.5081C46.1652 41.4496 46.1525 41.4038 46.1271 41.3708C46.1017 41.3402 46.0572 41.3174 45.9936 41.3021C45.9326 41.2843 45.8461 41.2716 45.7343 41.264C45.6275 41.2538 45.5334 41.2385 45.452 41.2182C45.3707 41.1979 45.3071 41.1699 45.2613 41.1343C45.2156 41.0987 45.1927 41.0555 45.1927 41.0046C45.1952 40.9639 45.2092 40.922 45.2346 40.8788C45.2601 40.833 45.2957 40.7872 45.3414 40.7415C45.3897 40.6931 45.4457 40.6474 45.5092 40.6042L45.6999 40.669C45.6847 40.6792 45.6631 40.6982 45.6351 40.7262C45.6071 40.7516 45.5817 40.7809 45.5588 40.8139C45.5359 40.8444 45.5245 40.8737 45.5245 40.9016C45.5245 40.9347 45.5677 40.9589 45.6542 40.9741C45.7406 40.9894 45.8474 41.0046 45.9745 41.0199C46.0737 41.0351 46.1614 41.0593 46.2377 41.0923C46.314 41.1228 46.3725 41.1673 46.4131 41.2258C46.4564 41.2843 46.478 41.3644 46.478 41.4661C46.478 41.5754 46.4525 41.6771 46.4017 41.7712C46.3508 41.8678 46.272 41.9441 46.1652 42C46.0584 42.0585 45.9199 42.0878 45.7495 42.0878ZM45.7953 40.7491C45.6427 40.7491 45.5232 40.7198 45.4368 40.6614C45.3503 40.6029 45.2893 40.5241 45.2537 40.4249C45.2181 40.3232 45.2003 40.2113 45.2003 40.0893C45.2003 39.9215 45.227 39.7867 45.2804 39.685C45.3338 39.5808 45.4088 39.5058 45.5054 39.46C45.602 39.4142 45.7126 39.3913 45.8372 39.3913C45.8652 39.3913 45.8995 39.3952 45.9402 39.4028C45.9834 39.4104 46.0228 39.4206 46.0584 39.4333L46.1233 39.5706C46.2123 39.6062 46.2822 39.6659 46.333 39.7498C46.3864 39.8338 46.4131 39.9444 46.4131 40.0817C46.4131 40.2164 46.3915 40.3334 46.3483 40.4325C46.3076 40.5317 46.2415 40.6092 46.15 40.6652C46.061 40.7211 45.9428 40.7491 45.7953 40.7491ZM45.8105 40.5126C45.8792 40.5126 45.9339 40.4936 45.9745 40.4554C46.0178 40.4173 46.0495 40.3613 46.0699 40.2876C46.0902 40.2113 46.1004 40.1185 46.1004 40.0092C46.1004 39.8693 46.0775 39.7702 46.0317 39.7117C45.986 39.6507 45.9161 39.6202 45.822 39.6202C45.7686 39.6202 45.719 39.6354 45.6732 39.6659C45.6275 39.6939 45.5919 39.7422 45.5664 39.8109C45.541 39.877 45.5283 39.9672 45.5283 40.0817C45.5283 40.1706 45.5347 40.2482 45.5474 40.3143C45.5626 40.3779 45.5906 40.4274 45.6313 40.463C45.672 40.4961 45.7317 40.5126 45.8105 40.5126ZM46.4055 39.6888C46.3674 39.6888 46.3216 39.6825 46.2682 39.6698C46.2148 39.6545 46.1614 39.6392 46.108 39.624C46.0546 39.6062 46.0101 39.5909 45.9745 39.5782C45.9415 39.5655 45.925 39.5592 45.925 39.5592L45.8906 39.4219H46.4818C46.4894 39.4346 46.4958 39.4536 46.5009 39.4791C46.5085 39.5019 46.5123 39.5312 46.5123 39.5668C46.5123 39.61 46.5021 39.6418 46.4818 39.6621C46.464 39.6799 46.4386 39.6888 46.4055 39.6888ZM46.7204 41.3364V39.563C46.7942 39.5096 46.8755 39.4676 46.9645 39.4371C47.0535 39.4066 47.1451 39.3913 47.2391 39.3913C47.3383 39.3913 47.407 39.4053 47.4451 39.4333C47.4858 39.4587 47.5061 39.4981 47.5061 39.5515C47.5061 39.5719 47.5036 39.5998 47.4985 39.6354C47.4934 39.6685 47.4845 39.7015 47.4718 39.7346C47.4438 39.7193 47.4146 39.7079 47.3841 39.7003C47.3536 39.6926 47.3218 39.6888 47.2887 39.6888C47.2455 39.6888 47.201 39.6965 47.1552 39.7117C47.112 39.7244 47.0726 39.7448 47.037 39.7727L47.0332 41.2754C47.0332 41.2957 47.0281 41.3097 47.0179 41.3174C47.0103 41.325 46.9849 41.3301 46.9417 41.3326C46.8984 41.3352 46.8247 41.3364 46.7204 41.3364ZM48.1971 41.3746C48.1106 41.3746 48.0292 41.3619 47.953 41.3364C47.8792 41.3135 47.8144 41.2703 47.7585 41.2068C47.7051 41.1432 47.6631 41.0529 47.6326 40.936C47.6046 40.819 47.5906 40.6677 47.5906 40.4821C47.5906 40.2431 47.6097 40.0511 47.6479 39.9062C47.686 39.7613 47.7368 39.652 47.8004 39.5782C47.864 39.5045 47.9364 39.4549 48.0178 39.4295C48.0992 39.4041 48.1818 39.3913 48.2657 39.3913C48.4259 39.3913 48.5467 39.4422 48.628 39.5439C48.7094 39.6456 48.7501 39.7994 48.7501 40.0054C48.7501 40.0893 48.7463 40.1757 48.7386 40.2647C48.7335 40.3537 48.7221 40.4325 48.7043 40.5012C48.6179 40.519 48.5212 40.5317 48.4144 40.5393C48.3077 40.547 48.206 40.5533 48.1093 40.5584C48.0127 40.5609 47.9326 40.5622 47.8691 40.5622C47.808 40.5622 47.7775 40.5622 47.7775 40.5622L47.7813 40.3105C47.7813 40.3105 47.8055 40.3118 47.8538 40.3143C47.9021 40.3143 47.9606 40.3143 48.0292 40.3143C48.1004 40.3118 48.1716 40.3079 48.2428 40.3029C48.3166 40.2952 48.3788 40.2838 48.4297 40.2685C48.4373 40.2329 48.4424 40.1948 48.445 40.1541C48.4475 40.1134 48.4488 40.0753 48.4488 40.0397C48.4462 39.9024 48.4297 39.8058 48.3992 39.7498C48.3712 39.6914 48.3153 39.6621 48.2314 39.6621C48.1882 39.6621 48.1462 39.6748 48.1055 39.7003C48.0674 39.7231 48.0331 39.7651 48.0025 39.8261C47.972 39.8846 47.9479 39.966 47.9301 40.0702C47.9148 40.1745 47.9072 40.3079 47.9072 40.4707C47.9072 40.5902 47.9136 40.6893 47.9263 40.7682C47.9415 40.847 47.9631 40.908 47.9911 40.9512C48.0216 40.9944 48.0585 41.0262 48.1017 41.0466C48.1475 41.0644 48.2021 41.0733 48.2657 41.0733C48.342 41.0733 48.417 41.0631 48.4907 41.0428C48.567 41.0224 48.6356 40.9932 48.6967 40.955C48.7094 40.9855 48.717 41.0211 48.7196 41.0618C48.7246 41.1 48.7272 41.1343 48.7272 41.1648C48.7272 41.2029 48.703 41.2385 48.6547 41.2716C48.6064 41.3046 48.5416 41.3301 48.4602 41.3479C48.3814 41.3657 48.2937 41.3746 48.1971 41.3746ZM49.0222 41.3364L49.0222 39.521C49.073 39.4981 49.1328 39.4778 49.2014 39.46C49.2701 39.4397 49.3413 39.4231 49.415 39.4104C49.4888 39.3977 49.56 39.3913 49.6286 39.3913C49.7608 39.3913 49.8663 39.4091 49.9452 39.4447C50.024 39.4778 50.0799 39.5312 50.113 39.6049C50.146 39.6787 50.1625 39.7778 50.1625 39.9024V41.2754C50.1625 41.2957 50.1575 41.3097 50.1473 41.3174C50.1371 41.325 50.1104 41.3301 50.0672 41.3326C50.024 41.3352 49.949 41.3364 49.8422 41.3364V39.9939C49.8422 39.8744 49.8282 39.7893 49.8002 39.7384C49.7723 39.6876 49.7112 39.6621 49.6172 39.6621C49.5739 39.6621 49.5256 39.6672 49.4722 39.6774C49.4188 39.6876 49.3718 39.7054 49.3311 39.7308V41.2754C49.3311 41.2957 49.326 41.3097 49.3159 41.3174C49.3082 41.325 49.2828 41.3301 49.2396 41.3326C49.1964 41.3352 49.1239 41.3364 49.0222 41.3364ZM50.5866 41.3364V39.5706C50.5866 39.5223 50.5955 39.4892 50.6133 39.4714C50.6311 39.4511 50.6629 39.4397 50.7086 39.4371C50.7544 39.432 50.8192 39.4295 50.9031 39.4295V41.2754C50.9031 41.2957 50.898 41.3097 50.8879 41.3174C50.8802 41.325 50.8548 41.3301 50.8116 41.3326C50.7684 41.3352 50.6934 41.3364 50.5866 41.3364ZM50.7353 39.1663C50.687 39.1638 50.6489 39.146 50.6209 39.1129C50.5929 39.0773 50.5789 39.015 50.5789 38.926C50.5815 38.8574 50.5967 38.8027 50.6247 38.762C50.6527 38.7188 50.6972 38.6972 50.7582 38.6972C50.8167 38.6972 50.8574 38.7137 50.8802 38.7468C50.9031 38.7798 50.9133 38.8371 50.9108 38.9184C50.9108 38.9947 50.8955 39.0557 50.865 39.1015C50.837 39.1447 50.7938 39.1663 50.7353 39.1663ZM51.7986 41.3746C51.7122 41.3746 51.6308 41.3619 51.5546 41.3364C51.4808 41.3135 51.416 41.2703 51.36 41.2068C51.3067 41.1432 51.2647 41.0529 51.2342 40.936C51.2062 40.819 51.1922 40.6677 51.1922 40.4821C51.1922 40.2431 51.2113 40.0511 51.2494 39.9062C51.2876 39.7613 51.3384 39.652 51.402 39.5782C51.4656 39.5045 51.538 39.4549 51.6194 39.4295C51.7008 39.4041 51.7834 39.3913 51.8673 39.3913C52.0275 39.3913 52.1483 39.4422 52.2296 39.5439C52.311 39.6456 52.3517 39.7994 52.3517 40.0054C52.3517 40.0893 52.3478 40.1757 52.3402 40.2647C52.3351 40.3537 52.3237 40.4325 52.3059 40.5012C52.2194 40.519 52.1228 40.5317 52.016 40.5393C51.9092 40.547 51.8075 40.5533 51.7109 40.5584C51.6143 40.5609 51.5342 40.5622 51.4707 40.5622C51.4096 40.5622 51.3791 40.5622 51.3791 40.5622L51.3829 40.3105C51.3829 40.3105 51.4071 40.3118 51.4554 40.3143C51.5037 40.3143 51.5622 40.3143 51.6308 40.3143C51.702 40.3118 51.7732 40.3079 51.8444 40.3029C51.9181 40.2952 51.9804 40.2838 52.0313 40.2685C52.0389 40.2329 52.044 40.1948 52.0465 40.1541C52.0491 40.1134 52.0504 40.0753 52.0504 40.0397C52.0478 39.9024 52.0313 39.8058 52.0008 39.7498C51.9728 39.6914 51.9169 39.6621 51.833 39.6621C51.7897 39.6621 51.7478 39.6748 51.7071 39.7003C51.669 39.7231 51.6346 39.7651 51.6041 39.8261C51.5736 39.8846 51.5495 39.966 51.5317 40.0702C51.5164 40.1745 51.5088 40.3079 51.5088 40.4707C51.5088 40.5902 51.5151 40.6893 51.5279 40.7682C51.5431 40.847 51.5647 40.908 51.5927 40.9512C51.6232 40.9944 51.6601 41.0262 51.7033 41.0466C51.7491 41.0644 51.8037 41.0733 51.8673 41.0733C51.9436 41.0733 52.0186 41.0631 52.0923 41.0428C52.1686 41.0224 52.2372 40.9932 52.2983 40.955C52.311 40.9855 52.3186 41.0211 52.3211 41.0618C52.3262 41.1 52.3288 41.1343 52.3288 41.1648C52.3288 41.2029 52.3046 41.2385 52.2563 41.2716C52.208 41.3046 52.1432 41.3301 52.0618 41.3479C51.983 41.3657 51.8953 41.3746 51.7986 41.3746ZM52.6276 41.3364V38.6743C52.6276 38.626 52.6352 38.593 52.6505 38.5752C52.6683 38.5548 52.7001 38.5434 52.7458 38.5408C52.7916 38.5358 52.8552 38.5332 52.9365 38.5332V41.2754C52.9365 41.2957 52.9314 41.3097 52.9213 41.3174C52.9136 41.325 52.8882 41.3301 52.845 41.3326C52.8043 41.3352 52.7318 41.3364 52.6276 41.3364ZM53.8093 42.0878C53.639 42.0878 53.5093 42.0662 53.4203 42.0229C53.3313 41.9797 53.2716 41.9263 53.2411 41.8627C53.2106 41.7992 53.1953 41.7356 53.1953 41.672C53.1953 41.5831 53.2207 41.5004 53.2716 41.4241C53.3224 41.3504 53.386 41.2856 53.4623 41.2296C53.5411 41.1712 53.6237 41.1292 53.7102 41.1038L53.8246 41.1953C53.7763 41.2157 53.728 41.2474 53.6797 41.2907C53.6314 41.3339 53.5919 41.3822 53.5614 41.4356C53.5309 41.489 53.5157 41.5436 53.5157 41.5996C53.5157 41.6377 53.5233 41.672 53.5386 41.7026C53.5564 41.7356 53.5881 41.7598 53.6339 41.775C53.6822 41.7928 53.7496 41.8017 53.836 41.8017C53.9733 41.8017 54.0725 41.7687 54.1335 41.7026C54.1945 41.639 54.2251 41.5742 54.2251 41.5081C54.2251 41.4496 54.2123 41.4038 54.1869 41.3708C54.1615 41.3402 54.117 41.3174 54.0534 41.3021C53.9924 41.2843 53.906 41.2716 53.7941 41.264C53.6873 41.2538 53.5932 41.2385 53.5119 41.2182C53.4305 41.1979 53.3669 41.1699 53.3212 41.1343C53.2754 41.0987 53.2525 41.0555 53.2525 41.0046C53.2551 40.9639 53.269 40.922 53.2945 40.8788C53.3199 40.833 53.3555 40.7872 53.4013 40.7415C53.4496 40.6931 53.5055 40.6474 53.5691 40.6042L53.7598 40.669C53.7445 40.6792 53.7229 40.6982 53.6949 40.7262C53.667 40.7516 53.6415 40.7809 53.6186 40.8139C53.5958 40.8444 53.5843 40.8737 53.5843 40.9016C53.5843 40.9347 53.6275 40.9589 53.714 40.9741C53.8004 40.9894 53.9072 41.0046 54.0344 41.0199C54.1335 41.0351 54.2212 41.0593 54.2975 41.0923C54.3738 41.1228 54.4323 41.1673 54.473 41.2258C54.5162 41.2843 54.5378 41.3644 54.5378 41.4661C54.5378 41.5754 54.5124 41.6771 54.4615 41.7712C54.4107 41.8678 54.3318 41.9441 54.2251 42C54.1183 42.0585 53.9797 42.0878 53.8093 42.0878ZM53.8551 40.7491C53.7026 40.7491 53.583 40.7198 53.4966 40.6614C53.4102 40.6029 53.3491 40.5241 53.3135 40.4249C53.2779 40.3232 53.2601 40.2113 53.2601 40.0893C53.2601 39.9215 53.2868 39.7867 53.3402 39.685C53.3936 39.5808 53.4686 39.5058 53.5653 39.46C53.6619 39.4142 53.7725 39.3913 53.8971 39.3913C53.925 39.3913 53.9594 39.3952 54 39.4028C54.0433 39.4104 54.0827 39.4206 54.1183 39.4333L54.1831 39.5706C54.2721 39.6062 54.342 39.6659 54.3929 39.7498C54.4463 39.8338 54.473 39.9444 54.473 40.0817C54.473 40.2164 54.4513 40.3334 54.4081 40.4325C54.3674 40.5317 54.3013 40.6092 54.2098 40.6652C54.1208 40.7211 54.0026 40.7491 53.8551 40.7491ZM53.8704 40.5126C53.939 40.5126 53.9937 40.4936 54.0344 40.4554C54.0776 40.4173 54.1094 40.3613 54.1297 40.2876C54.15 40.2113 54.1602 40.1185 54.1602 40.0092C54.1602 39.8693 54.1373 39.7702 54.0916 39.7117C54.0458 39.6507 53.9759 39.6202 53.8818 39.6202C53.8284 39.6202 53.7788 39.6354 53.7331 39.6659C53.6873 39.6939 53.6517 39.7422 53.6263 39.8109C53.6008 39.877 53.5881 39.9672 53.5881 40.0817C53.5881 40.1706 53.5945 40.2482 53.6072 40.3143C53.6225 40.3779 53.6504 40.4274 53.6911 40.463C53.7318 40.4961 53.7915 40.5126 53.8704 40.5126ZM54.4653 39.6888C54.4272 39.6888 54.3814 39.6825 54.328 39.6698C54.2746 39.6545 54.2212 39.6392 54.1678 39.624C54.1145 39.6062 54.07 39.5909 54.0344 39.5782C54.0013 39.5655 53.9848 39.5592 53.9848 39.5592L53.9505 39.4219H54.5416C54.5492 39.4346 54.5556 39.4536 54.5607 39.4791C54.5683 39.5019 54.5721 39.5312 54.5721 39.5668C54.5721 39.61 54.5619 39.6418 54.5416 39.6621C54.5238 39.6799 54.4984 39.6888 54.4653 39.6888ZM55.2646 41.3746C55.1934 41.3746 55.1248 41.3682 55.0587 41.3555C54.9951 41.3453 54.9379 41.3212 54.8871 41.283C54.8362 41.2423 54.7955 41.1839 54.765 41.1076C54.7345 41.0313 54.7193 40.9271 54.7193 40.7949C54.7193 40.6626 54.7332 40.5558 54.7612 40.4745C54.7892 40.3906 54.8273 40.327 54.8756 40.2838C54.9239 40.238 54.9786 40.2075 55.0396 40.1923C55.1006 40.177 55.1629 40.1694 55.2265 40.1694C55.2672 40.1694 55.3142 40.1732 55.3676 40.1808C55.4235 40.1884 55.4706 40.2012 55.5087 40.219C55.5087 40.219 55.5087 40.2012 55.5087 40.1656C55.5087 40.13 55.5087 40.0893 55.5087 40.0435C55.5087 39.9952 55.5087 39.9533 55.5087 39.9177C55.5087 39.8566 55.4986 39.8109 55.4782 39.7804C55.4604 39.7473 55.4337 39.7244 55.3981 39.7117C55.3651 39.6965 55.3231 39.6888 55.2723 39.6888C55.1731 39.6888 55.0778 39.6977 54.9862 39.7155C54.8947 39.7333 54.821 39.7537 54.765 39.7765C54.7472 39.746 54.7358 39.7155 54.7307 39.685C54.7256 39.652 54.7231 39.6227 54.7231 39.5973C54.7231 39.5795 54.7256 39.5604 54.7307 39.5401C54.7383 39.5197 54.7498 39.5045 54.765 39.4943C54.7981 39.474 54.8667 39.4524 54.971 39.4295C55.0752 39.4041 55.1998 39.3913 55.3447 39.3913C55.51 39.3913 55.6295 39.4257 55.7032 39.4943C55.7795 39.563 55.8177 39.6837 55.8177 39.8566V40.0588C55.8177 40.2037 55.8164 40.3499 55.8138 40.4974C55.8138 40.6423 55.8126 40.7796 55.81 40.9093C55.8075 41.0364 55.8024 41.1483 55.7948 41.2449C55.7439 41.2754 55.674 41.3046 55.585 41.3326C55.496 41.3606 55.3892 41.3746 55.2646 41.3746ZM55.2951 41.1152C55.3358 41.1152 55.3752 41.1089 55.4134 41.0962C55.4515 41.0834 55.4782 41.0682 55.4935 41.0504C55.4986 41.0097 55.5011 40.9538 55.5011 40.8826C55.5036 40.8114 55.5049 40.7364 55.5049 40.6576C55.5075 40.5787 55.5087 40.505 55.5087 40.4363C55.4833 40.4236 55.4528 40.4147 55.4172 40.4097C55.3841 40.4046 55.3549 40.402 55.3295 40.402C55.2888 40.402 55.2507 40.4071 55.2151 40.4173C55.182 40.4249 55.1528 40.4427 55.1273 40.4707C55.1019 40.4961 55.0816 40.5342 55.0663 40.5851C55.0511 40.6359 55.0434 40.7033 55.0434 40.7872C55.0434 40.8559 55.0485 40.9118 55.0587 40.955C55.0714 40.9983 55.0892 41.0326 55.1121 41.058C55.135 41.0809 55.1617 41.0962 55.1922 41.1038C55.2227 41.1114 55.257 41.1152 55.2951 41.1152ZM56.1324 41.3364V38.6743C56.1324 38.626 56.14 38.593 56.1552 38.5752C56.173 38.5548 56.2048 38.5434 56.2506 38.5408C56.2964 38.5358 56.3599 38.5332 56.4413 38.5332V41.2754C56.4413 41.2957 56.4362 41.3097 56.426 41.3174C56.4184 41.325 56.393 41.3301 56.3497 41.3326C56.3091 41.3352 56.2366 41.3364 56.1324 41.3364ZM56.7916 41.3364V39.5706C56.7916 39.5223 56.8005 39.4892 56.8183 39.4714C56.8361 39.4511 56.8679 39.4397 56.9136 39.4371C56.9594 39.432 57.0242 39.4295 57.1081 39.4295V41.2754C57.1081 41.2957 57.1031 41.3097 57.0929 41.3174C57.0853 41.325 57.0598 41.3301 57.0166 41.3326C56.9734 41.3352 56.8984 41.3364 56.7916 41.3364ZM56.9403 39.1663C56.892 39.1638 56.8539 39.146 56.8259 39.1129C56.798 39.0773 56.784 39.015 56.784 38.926C56.7865 38.8574 56.8018 38.8027 56.8297 38.762C56.8577 38.7188 56.9022 38.6972 56.9632 38.6972C57.0217 38.6972 57.0624 38.7137 57.0853 38.7468C57.1081 38.7798 57.1183 38.8371 57.1158 38.9184C57.1158 38.9947 57.1005 39.0557 57.07 39.1015C57.042 39.1447 56.9988 39.1663 56.9403 39.1663ZM57.5029 41.3364V39.521C57.5537 39.4981 57.6135 39.4778 57.6821 39.46C57.7508 39.4397 57.822 39.4231 57.8957 39.4104C57.9695 39.3977 58.0406 39.3913 58.1093 39.3913C58.2415 39.3913 58.347 39.4091 58.4258 39.4447C58.5047 39.4778 58.5606 39.5312 58.5937 39.6049C58.6267 39.6787 58.6432 39.7778 58.6432 39.9024V41.2754C58.6432 41.2957 58.6382 41.3097 58.628 41.3174C58.6178 41.325 58.5911 41.3301 58.5479 41.3326C58.5047 41.3352 58.4297 41.3364 58.3229 41.3364V39.9939C58.3229 39.8744 58.3089 39.7893 58.2809 39.7384C58.253 39.6876 58.1919 39.6621 58.0979 39.6621C58.0546 39.6621 58.0063 39.6672 57.9529 39.6774C57.8995 39.6876 57.8525 39.7054 57.8118 39.7308V41.2754C57.8118 41.2957 57.8067 41.3097 57.7966 41.3174C57.7889 41.325 57.7635 41.3301 57.7203 41.3326C57.6771 41.3352 57.6046 41.3364 57.5029 41.3364ZM59.4435 41.3746C59.3723 41.3746 59.3037 41.3682 59.2376 41.3555C59.174 41.3453 59.1168 41.3212 59.066 41.283C59.0151 41.2423 58.9744 41.1839 58.9439 41.1076C58.9134 41.0313 58.8981 40.9271 58.8981 40.7949C58.8981 40.6626 58.9121 40.5558 58.9401 40.4745C58.9681 40.3906 59.0062 40.327 59.0545 40.2838C59.1028 40.238 59.1575 40.2075 59.2185 40.1923C59.2795 40.177 59.3418 40.1694 59.4054 40.1694C59.4461 40.1694 59.4931 40.1732 59.5465 40.1808C59.6024 40.1884 59.6495 40.2012 59.6876 40.219C59.6876 40.219 59.6876 40.2012 59.6876 40.1656C59.6876 40.13 59.6876 40.0893 59.6876 40.0435C59.6876 39.9952 59.6876 39.9533 59.6876 39.9177C59.6876 39.8566 59.6774 39.8109 59.6571 39.7804C59.6393 39.7473 59.6126 39.7244 59.577 39.7117C59.544 39.6965 59.502 39.6888 59.4512 39.6888C59.352 39.6888 59.2566 39.6977 59.1651 39.7155C59.0736 39.7333 58.9998 39.7537 58.9439 39.7765C58.9261 39.746 58.9147 39.7155 58.9096 39.685C58.9045 39.652 58.902 39.6227 58.902 39.5973C58.902 39.5795 58.9045 39.5604 58.9096 39.5401C58.9172 39.5197 58.9287 39.5045 58.9439 39.4943C58.977 39.474 59.0456 39.4524 59.1499 39.4295C59.2541 39.4041 59.3787 39.3913 59.5236 39.3913C59.6889 39.3913 59.8084 39.4257 59.8821 39.4943C59.9584 39.563 59.9965 39.6837 59.9965 39.8566V40.0588C59.9965 40.2037 59.9953 40.3499 59.9927 40.4974C59.9927 40.6423 59.9915 40.7796 59.9889 40.9093C59.9864 41.0364 59.9813 41.1483 59.9737 41.2449C59.9228 41.2754 59.8529 41.3046 59.7639 41.3326C59.6749 41.3606 59.5681 41.3746 59.4435 41.3746ZM59.474 41.1152C59.5147 41.1152 59.5541 41.1089 59.5923 41.0962C59.6304 41.0834 59.6571 41.0682 59.6724 41.0504C59.6774 41.0097 59.68 40.9538 59.68 40.8826C59.6825 40.8114 59.6838 40.7364 59.6838 40.6576C59.6863 40.5787 59.6876 40.505 59.6876 40.4363C59.6622 40.4236 59.6317 40.4147 59.5961 40.4097C59.563 40.4046 59.5338 40.402 59.5084 40.402C59.4677 40.402 59.4295 40.4071 59.3939 40.4173C59.3609 40.4249 59.3317 40.4427 59.3062 40.4707C59.2808 40.4961 59.2605 40.5342 59.2452 40.5851C59.23 40.6359 59.2223 40.7033 59.2223 40.7872C59.2223 40.8559 59.2274 40.9118 59.2376 40.955C59.2503 40.9983 59.2681 41.0326 59.291 41.058C59.3139 41.0809 59.3406 41.0962 59.3711 41.1038C59.4016 41.1114 59.4359 41.1152 59.474 41.1152ZM60.8039 41.3746C60.6971 41.3746 60.617 41.3517 60.5636 41.3059C60.5127 41.2576 60.4797 41.1915 60.4644 41.1076C60.4492 41.0211 60.4415 40.9207 60.4415 40.8063V39.6965H60.1822C60.1822 39.6151 60.1822 39.5566 60.1822 39.521C60.1847 39.4829 60.1911 39.4587 60.2013 39.4485C60.2114 39.4358 60.2267 39.4295 60.247 39.4295H60.4415V38.8498C60.4415 38.8116 60.4492 38.7862 60.4644 38.7735C60.4822 38.7582 60.5127 38.7493 60.556 38.7468C60.6017 38.7443 60.6666 38.743 60.7505 38.743V39.4295H61.1395C61.1395 39.5083 61.1382 39.5668 61.1357 39.6049C61.1357 39.6431 61.1306 39.6685 61.1204 39.6812C61.1128 39.6914 61.0988 39.6965 61.0785 39.6965H60.7505V40.8063C60.7505 40.8597 60.7517 40.9105 60.7543 40.9589C60.7594 41.0046 60.7708 41.0415 60.7886 41.0695C60.809 41.0949 60.842 41.1076 60.8878 41.1076C60.931 41.1076 60.9691 41.1038 61.0022 41.0962C61.0352 41.086 61.0708 41.0707 61.109 41.0504C61.1141 41.0707 61.1191 41.0936 61.1242 41.119C61.1293 41.1445 61.1319 41.1737 61.1319 41.2068C61.1319 41.2525 61.1141 41.2881 61.0785 41.3135C61.0454 41.3364 61.0035 41.3517 60.9526 41.3593C60.9043 41.3695 60.8547 41.3746 60.8039 41.3746ZM61.8581 41.3746C61.7615 41.3746 61.675 41.3619 61.5987 41.3364C61.525 41.3135 61.4627 41.2678 61.4119 41.1991C61.361 41.1305 61.3229 41.0313 61.2974 40.9016C61.272 40.7694 61.2593 40.5965 61.2593 40.383C61.2593 40.0346 61.3152 39.7829 61.4271 39.6278C61.539 39.4702 61.6941 39.3913 61.8924 39.3913C62.0272 39.3913 62.1378 39.4193 62.2242 39.4752C62.3132 39.5312 62.3793 39.6303 62.4225 39.7727C62.4658 39.9151 62.4874 40.1147 62.4874 40.3715C62.4874 40.7275 62.434 40.9843 62.3272 41.1419C62.2204 41.297 62.064 41.3746 61.8581 41.3746ZM61.8657 41.1114C61.9216 41.1114 61.97 41.0923 62.0106 41.0542C62.0539 41.0135 62.0882 40.9398 62.1136 40.833C62.139 40.7262 62.1517 40.5736 62.1517 40.3753C62.1517 40.1719 62.1416 40.0194 62.1212 39.9177C62.1009 39.8134 62.0717 39.7435 62.0335 39.7079C61.9954 39.6723 61.9445 39.6545 61.881 39.6545C61.825 39.6545 61.7754 39.6748 61.7322 39.7155C61.689 39.7537 61.6547 39.8261 61.6292 39.9329C61.6064 40.0397 61.5949 40.1923 61.5949 40.3906C61.5949 40.5457 61.6013 40.6715 61.614 40.7682C61.6267 40.8648 61.6432 40.9385 61.6636 40.9894C61.6865 41.0377 61.7157 41.0707 61.7513 41.0885C61.7869 41.1038 61.825 41.1114 61.8657 41.1114ZM62.8965 41.3593C62.8152 41.3593 62.7592 41.3402 62.7287 41.3021C62.6982 41.264 62.683 41.2106 62.683 41.1419C62.683 41.0834 62.7008 41.0326 62.7363 40.9894C62.7745 40.9436 62.8279 40.9207 62.8965 40.9207C62.9754 40.9207 63.03 40.9411 63.0605 40.9817C63.0936 41.0224 63.1101 41.0758 63.1101 41.1419C63.1101 41.2004 63.091 41.2512 63.0529 41.2945C63.0148 41.3377 62.9626 41.3593 62.8965 41.3593ZM63.8764 41.3746C63.7823 41.3746 63.6997 41.3619 63.6285 41.3364C63.5599 41.3135 63.5014 41.269 63.4531 41.2029C63.4048 41.1343 63.3679 41.0377 63.3425 40.9131C63.3196 40.7885 63.3081 40.6258 63.3081 40.4249C63.3081 40.1961 63.3285 40.013 63.3692 39.8757C63.4098 39.7384 63.4632 39.6354 63.5293 39.5668C63.598 39.4956 63.6717 39.4485 63.7505 39.4257C63.8319 39.4028 63.912 39.3913 63.9908 39.3913C64.0798 39.3913 64.1548 39.4079 64.2158 39.4409C64.2769 39.4714 64.3074 39.5121 64.3074 39.563C64.3074 39.5833 64.3048 39.6087 64.2997 39.6392C64.2972 39.6698 64.2896 39.7015 64.2769 39.7346C64.2464 39.7168 64.2069 39.7015 64.1586 39.6888C64.1103 39.6736 64.0595 39.6659 64.0061 39.6659C63.9629 39.6659 63.9184 39.6748 63.8726 39.6926C63.8294 39.7079 63.7887 39.7409 63.7505 39.7918C63.7124 39.8427 63.6819 39.9189 63.659 40.0206C63.6387 40.1223 63.6285 40.2571 63.6285 40.4249C63.6285 40.5597 63.6349 40.6715 63.6476 40.7605C63.6628 40.847 63.6844 40.9156 63.7124 40.9665C63.7404 41.0148 63.776 41.0491 63.8192 41.0695C63.8624 41.0898 63.912 41.1 63.9679 41.1C64.029 41.1 64.0862 41.0911 64.1396 41.0733C64.1955 41.0529 64.24 41.0326 64.273 41.0122C64.2832 41.0453 64.2896 41.0758 64.2921 41.1038C64.2972 41.1292 64.2997 41.1546 64.2997 41.1801C64.2997 41.2335 64.2603 41.2792 64.1815 41.3174C64.1027 41.3555 64.001 41.3746 63.8764 41.3746ZM65.0314 41.3746C64.9347 41.3746 64.8483 41.3619 64.772 41.3364C64.6983 41.3135 64.636 41.2678 64.5851 41.1991C64.5343 41.1305 64.4961 41.0313 64.4707 40.9016C64.4453 40.7694 64.4326 40.5965 64.4326 40.383C64.4326 40.0346 64.4885 39.7829 64.6004 39.6278C64.7123 39.4702 64.8674 39.3913 65.0657 39.3913C65.2004 39.3913 65.311 39.4193 65.3975 39.4752C65.4865 39.5312 65.5526 39.6303 65.5958 39.7727C65.639 39.9151 65.6606 40.1147 65.6606 40.3715C65.6606 40.7275 65.6073 40.9843 65.5005 41.1419C65.3937 41.297 65.2373 41.3746 65.0314 41.3746ZM65.039 41.1114C65.0949 41.1114 65.1432 41.0923 65.1839 41.0542C65.2271 41.0135 65.2615 40.9398 65.2869 40.833C65.3123 40.7262 65.325 40.5736 65.325 40.3753C65.325 40.1719 65.3149 40.0194 65.2945 39.9177C65.2742 39.8134 65.2449 39.7435 65.2068 39.7079C65.1687 39.6723 65.1178 39.6545 65.0542 39.6545C64.9983 39.6545 64.9487 39.6748 64.9055 39.7155C64.8623 39.7537 64.8279 39.8261 64.8025 39.9329C64.7796 40.0397 64.7682 40.1923 64.7682 40.3906C64.7682 40.5457 64.7746 40.6715 64.7873 40.7682C64.8 40.8648 64.8165 40.9385 64.8368 40.9894C64.8597 41.0377 64.889 41.0707 64.9246 41.0885C64.9602 41.1038 64.9983 41.1114 65.039 41.1114ZM65.939 41.3364V39.5172C66.0229 39.4791 66.1131 39.4485 66.2098 39.4257C66.3089 39.4028 66.4106 39.3913 66.5149 39.3913C66.6649 39.3913 66.7742 39.4244 66.8429 39.4905C66.9115 39.5566 66.9547 39.6507 66.9725 39.7727C66.9929 39.8948 67.003 40.041 67.003 40.2113V41.2754C67.003 41.2957 66.998 41.3097 66.9878 41.3174C66.9776 41.325 66.9509 41.3301 66.9077 41.3326C66.8645 41.3352 66.7933 41.3364 66.6941 41.3364V39.9177C66.6941 39.8541 66.6903 39.8045 66.6827 39.7689C66.6776 39.7308 66.6611 39.7041 66.6331 39.6888C66.6077 39.671 66.5657 39.6621 66.5072 39.6621C66.464 39.6621 66.4208 39.6672 66.3776 39.6774C66.3369 39.6876 66.2937 39.7041 66.2479 39.727V41.2754C66.2479 41.2957 66.2428 41.3097 66.2326 41.3174C66.2225 41.325 66.1958 41.3301 66.1526 41.3326C66.1119 41.3352 66.0407 41.3364 65.939 41.3364ZM66.6941 41.3364V39.6736C66.717 39.6176 66.7615 39.5693 66.8276 39.5286C66.8963 39.4854 66.9751 39.4524 67.0641 39.4295C67.1556 39.4041 67.2433 39.3913 67.3272 39.3913C67.4544 39.3913 67.5484 39.413 67.6095 39.4562C67.6705 39.4969 67.7099 39.5579 67.7277 39.6392C67.7455 39.7181 67.7544 39.8147 67.7544 39.9291V41.2754C67.7544 41.2957 67.7493 41.3097 67.7391 41.3174C67.729 41.325 67.7023 41.3301 67.659 41.3326C67.6158 41.3352 67.5446 41.3364 67.4455 41.3364V39.9253C67.4455 39.8338 67.4327 39.7676 67.4073 39.727C67.3844 39.6863 67.3349 39.6659 67.2586 39.6659C67.2179 39.6659 67.1759 39.671 67.1327 39.6812C67.0895 39.6914 67.0463 39.7104 67.003 39.7384V41.2754C67.003 41.2957 66.9992 41.3097 66.9916 41.3174C66.984 41.325 66.9586 41.3301 66.9153 41.3326C66.8721 41.3352 66.7984 41.3364 66.6941 41.3364Z" fill="#003036"/>
</svg>
