<svg width="50" height="50" viewBox="0 0 50 50" fill="none" xmlns="http://www.w3.org/2000/svg">
<path d="M50 25C50 38.8105 38.8105 50 25 50C22.4194 50 19.9395 49.6069 17.6008 48.881C18.619 47.2177 20.1411 44.496 20.7056 42.3286C21.0081 41.1593 22.2581 36.381 22.2581 36.381C23.0746 37.9335 25.4536 39.254 27.9839 39.254C35.5242 39.254 40.9577 32.3185 40.9577 23.6996C40.9577 15.4435 34.2137 9.26411 25.5444 9.26411C14.7581 9.26411 9.02218 16.502 9.02218 24.3952C9.02218 28.0645 10.9778 32.631 14.0927 34.0827C14.5665 34.3044 14.8185 34.2036 14.9294 33.75C15.0101 33.4073 15.4335 31.7036 15.625 30.9173C15.6855 30.6653 15.6552 30.4435 15.4536 30.2016C14.4355 28.9415 13.6089 26.6431 13.6089 24.496C13.6089 18.9819 17.7823 13.6492 24.8992 13.6492C31.0383 13.6492 35.3427 17.8327 35.3427 23.8206C35.3427 30.5847 31.9254 35.2722 27.4798 35.2722C25.0302 35.2722 23.1855 33.246 23.7802 30.756C24.4859 27.7823 25.8468 24.5766 25.8468 22.4294C25.8468 20.5141 24.8185 18.9113 22.6815 18.9113C20.1714 18.9113 18.1552 21.502 18.1552 24.9798C18.1552 27.1976 18.9012 28.6895 18.9012 28.6895C18.9012 28.6895 16.4315 39.1532 15.9778 41.1089C15.4738 43.2661 15.6754 46.3105 15.8871 48.2863C6.59274 44.6472 0 35.5948 0 25C0 11.1895 11.1895 0 25 0C38.8105 0 50 11.1895 50 25Z" fill="white" fill-opacity="0.7"/>
</svg>
