<svg width="44" height="50" viewBox="0 0 44 50" fill="none" xmlns="http://www.w3.org/2000/svg">
<path d="M18.4004 28.6133C18.4004 30.498 17.0332 31.0938 15.3535 31.0938H10.9492V25.9277H15.4414C17.2578 25.9375 18.4004 26.6895 18.4004 28.6133ZM17.6484 20.5762C17.6484 18.8477 16.3105 18.4375 14.8262 18.4375H10.959V22.8125H15.1289C16.6035 22.8125 17.6484 22.168 17.6484 20.5762ZM30.5684 22.8418C28.7812 22.8418 27.5898 23.9551 27.4727 25.7422H33.5469C33.3809 23.9355 32.4434 22.8418 30.5684 22.8418ZM43.9375 7.8125V42.1875C43.9375 44.7754 41.8379 46.875 39.25 46.875H4.875C2.28711 46.875 0.1875 44.7754 0.1875 42.1875V7.8125C0.1875 5.22461 2.28711 3.125 4.875 3.125H39.25C41.8379 3.125 43.9375 5.22461 43.9375 7.8125ZM26.7207 18.0664H34.3184V16.2207H26.7207V18.0664ZM22.5215 28.8379C22.5215 26.4844 21.4082 24.4531 19.1035 23.7988C20.7832 22.998 21.6621 22.0703 21.6621 20.1855C21.6621 16.4551 18.8789 15.5469 15.666 15.5469H6.82812V34.2969H15.9199C19.3281 34.2773 22.5215 32.6465 22.5215 28.8379ZM37.2969 27.3926C37.2969 23.3789 34.9434 20.0293 30.6953 20.0293C26.5547 20.0293 23.752 23.1348 23.752 27.2168C23.752 31.4453 26.418 34.3457 30.6953 34.3457C33.9375 34.3457 36.0371 32.8906 37.0527 29.7754H33.7617C33.4004 30.9375 31.9453 31.543 30.8125 31.543C28.625 31.543 27.4824 30.2637 27.4824 28.0957H37.2676C37.2773 27.8711 37.2969 27.627 37.2969 27.3926Z" fill="white" fill-opacity="0.7"/>
</svg>
