<svg width="45" height="50" viewBox="0 0 45 50" fill="none" xmlns="http://www.w3.org/2000/svg">
<path d="M33.3105 23.0176C33.5254 23.1055 33.7207 23.2031 33.9258 23.291C36.7773 24.668 38.8672 26.7285 39.9609 29.2871C41.4941 32.8516 41.6406 38.6426 37.002 43.2715C33.4668 46.8066 29.1602 48.3984 23.0762 48.4473H23.0469C16.1914 48.3984 10.9277 46.0938 7.38281 41.5918C4.22852 37.5879 2.60742 32.0117 2.54883 25.0293V25V24.9805C2.59766 17.998 4.21875 12.4219 7.37305 8.41797C10.918 3.91602 16.1914 1.61133 23.0469 1.5625H23.0762C29.9414 1.61133 35.2734 3.90625 38.9258 8.38867C40.7227 10.6055 42.0508 13.2715 42.8906 16.3672L38.9453 17.4219C38.252 14.9023 37.207 12.7539 35.8008 11.0352C32.9492 7.53906 28.6719 5.74219 23.0566 5.70312C17.4902 5.75195 13.2812 7.53906 10.5371 11.0156C7.97852 14.2676 6.65039 18.9746 6.60156 25C6.65039 31.0254 7.97852 35.7324 10.5371 38.9941C13.2715 42.4707 17.4902 44.2578 23.0566 44.3066C28.0762 44.2676 31.3965 43.0762 34.1602 40.3125C37.3145 37.168 37.2559 33.3008 36.25 30.9473C35.6543 29.5605 34.5801 28.4082 33.1348 27.5391C32.7734 30.166 31.9824 32.2559 30.7227 33.8672C29.0527 35.9961 26.6797 37.1484 23.623 37.3145C21.3184 37.4414 19.1016 36.8848 17.3828 35.752C15.3516 34.4043 14.1602 32.3535 14.0332 29.9609C13.7891 25.2441 17.5195 21.8555 23.3301 21.5234C25.3906 21.4062 27.3242 21.4941 29.1113 21.7969C28.877 20.3516 28.3984 19.1992 27.6855 18.3594C26.709 17.2168 25.1855 16.6309 23.1738 16.6211H23.1055C21.4844 16.6211 19.2969 17.0703 17.9004 19.1895L14.541 16.8848C16.416 14.043 19.4531 12.4805 23.1152 12.4805H23.1934C29.3066 12.5195 32.9492 16.3379 33.3203 22.998L33.3008 23.0176H33.3105ZM18.0762 29.7363C18.2031 32.1875 20.8496 33.3301 23.4082 33.1836C25.9082 33.0469 28.7402 32.0703 29.2188 26.0352C27.9297 25.752 26.5039 25.6055 24.9805 25.6055C24.5117 25.6055 24.043 25.6152 23.5742 25.6445C19.3848 25.8789 17.9883 27.9102 18.0859 29.7266L18.0762 29.7363Z" fill="white" fill-opacity="0.7"/>
</svg>
